/* XPM */
static char *bfc11c8b6efe453ea27fa80d6a1526e1Crg4TnBsRnohiqtf[] = {
/* columns rows colors chars-per-pixel */
"64 64 251 2 ",
"   c #771C3B",
".  c #730C30",
"X  c #7A1C40",
"o  c #7B2846",
"O  c #794259",
"+  c #870A35",
"@  c #970838",
"#  c #87163C",
"$  c #8E0936",
"%  c #A7043B",
"&  c #9A1A47",
"*  c #8C1C42",
"=  c #AB0D44",
"-  c #B50A44",
";  c #A61748",
":  c #B4154B",
">  c #B8174D",
",  c #BC1D53",
"<  c #B31C51",
"1  c #AE1C52",
"2  c #892648",
"3  c #96244C",
"4  c #962C51",
"5  c #983859",
"6  c #893453",
"7  c #AC2452",
"8  c #AA2C57",
"9  c #B32354",
"0  c #BB235A",
"q  c #B7285A",
"w  c #A6365D",
"e  c #A4214D",
"r  c #9E3C62",
"t  c #A83A62",
"y  c #B83764",
"u  c #BF2F60",
"i  c #C8074B",
"p  c #C71A55",
"a  c #D51759",
"s  c #CC0E50",
"d  c #E5135D",
"f  c #E30756",
"g  c #C4245A",
"h  c #C6265C",
"j  c #D3215D",
"k  c #D91D61",
"l  c #E81963",
"z  c #F61665",
"x  c #CB2C62",
"c  c #C62B64",
"v  c #D52C65",
"b  c #DA2866",
"n  c #C7396A",
"m  c #D43A6E",
"M  c #D9356D",
"N  c #DA3D73",
"B  c #DC3976",
"V  c #C43E73",
"C  c #E5266B",
"Z  c #F72673",
"A  c #E73676",
"S  c #F33278",
"D  c #91415E",
"F  c #9A4867",
"G  c #93526B",
"H  c #A74668",
"J  c #B6436B",
"K  c #BA4B74",
"L  c #A95675",
"P  c #B45375",
"I  c #B85578",
"U  c #AA516F",
"Y  c #A7647A",
"T  c #B0607B",
"R  c #9B677D",
"E  c #C9416F",
"W  c #CC4472",
"Q  c #CE4C7A",
"!  c #C74874",
"~  c #D64879",
"^  c #C7577D",
"/  c #D3517D",
"(  c #E4467C",
")  c #ED3E80",
"_  c #BD5C81",
"`  c #AA6B83",
"'  c #B66884",
"]  c #AA768B",
"[  c #B8758D",
"{  c #DB4D82",
"}  c #C65D82",
"|  c #CF5D84",
" . c #CD5583",
".. c #DC5483",
"X. c #DC5D8A",
"o. c #D75A87",
"O. c #E94B84",
"+. c #FF498E",
"@. c #F64886",
"#. c #E35B8A",
"$. c #EB5A8C",
"%. c #E95388",
"&. c #F3548C",
"*. c #F4598D",
"=. c #F9558C",
"-. c #FF4F92",
";. c #EC5E91",
":. c #E55A91",
">. c #FF5494",
",. c #F55D93",
"<. c #FD5C94",
"1. c #FF5C9C",
"2. c #FB5697",
"3. c #CB688B",
"4. c #D5618A",
"5. c #D9658C",
"6. c #DC6592",
"7. c #D46A92",
"8. c #D96B94",
"9. c #D56190",
"0. c #CC7494",
"q. c #C67795",
"w. c #D8769A",
"e. c #CE6A90",
"r. c #E6618E",
"t. c #E46492",
"y. c #EA6494",
"u. c #E46A95",
"i. c #E56B99",
"p. c #ED6C9A",
"a. c #ED6897",
"s. c #F36395",
"d. c #F3659A",
"f. c #FE649C",
"g. c #F26B9C",
"h. c #FA699C",
"j. c #E4729C",
"k. c #E6769E",
"l. c #FF5EA0",
"z. c #DB7BA0",
"x. c #FF64A3",
"c. c #FD6CA3",
"v. c #FB6BA4",
"b. c #ED75A2",
"n. c #E87AA3",
"m. c #FD73A5",
"M. c #FD7AAC",
"N. c #F875A6",
"B. c #F975AC",
"V. c #BA839A",
"C. c #C8849C",
"Z. c #D0849E",
"A. c #D789A6",
"S. c #D395AC",
"D. c #DA98B2",
"F. c #C993A7",
"G. c #E888A9",
"H. c #F385AB",
"J. c #F98AB4",
"K. c #EA96B5",
"L. c #F698BA",
"P. c #E38FB0",
"I. c #DCAABD",
"U. c #D6A5B6",
"Y. c #CEAAB9",
"T. c #E5A6BD",
"R. c #FF9DC5",
"E. c #DFADC2",
"W. c #DEB5C3",
"Q. c #E8A9C2",
"!. c #FAAAC8",
"~. c #E7B7CA",
"^. c #F8B2CA",
"/. c #FFAFD3",
"(. c #FFB4D3",
"). c #FFBAD5",
"_. c #FCBAD7",
"`. c #EFBED1",
"'. c #DAC9D2",
"]. c #DADDDE",
"[. c #CDD9D9",
"{. c #FEC3DB",
"}. c #F7C5D9",
"|. c #E6D4DC",
" X c #EFCAD8",
".X c #DEDCE1",
"XX c #FFC6E3",
"oX c #FECDE3",
"OX c #FFCEEB",
"+X c #E5DCE2",
"@X c #FFD3EC",
"#X c #FEDCEC",
"$X c #F5DAE6",
"%X c #FFD5F3",
"&X c #FFDCF3",
"*X c #FFD8FA",
"=X c #DEE3E3",
"-X c #DEECEB",
";X c #D9ECE6",
":X c #CEF8EA",
">X c #DDF4EC",
",X c #D6F2E9",
"<X c #DDFCF2",
"1X c #D8FBF5",
"2X c #E3E5E9",
"3X c #ECE5E9",
"4X c #E5EDEB",
"5X c #ECEDEC",
"6X c #E7E5E6",
"7X c #F3E4EC",
"8X c #FCE4ED",
"9X c #F2EBED",
"0X c #FBEBEE",
"qX c #F5E2E7",
"wX c #E4F3ED",
"eX c #EBF2EE",
"rX c #E7F9EF",
"tX c #F5F1EE",
"yX c #EDEDF1",
"uX c #E7EFF1",
"iX c #FFE4F3",
"pX c #F4EDF1",
"aX c #FDEBF3",
"sX c #FFE5FC",
"dX c #FFECFD",
"fX c #F7E6F0",
"gX c #E6F6F1",
"hX c #ECF4F2",
"jX c #E4FCF4",
"kX c #ECFAF5",
"lX c #E4FFFC",
"zX c #EDFEFB",
"xX c #EEF6F8",
"cX c #F3F3F3",
"vX c #FCF3F5",
"bX c #F2FAF7",
"nX c #F3F5F9",
"mX c #FFF6F9",
"MX c #FEF4FD",
"NX c #F6FAF9",
"BX c #F6FFFE",
"VX c #F4FEFC",
"CX c #F9FAF9",
"ZX c #FEF9FA",
"AX c #FFFAFD",
"SX c #F9FFFE",
"DX c #FFFDFF",
"FX c #FFFEFF",
"GX c #FEFDFD",
"HX c #FCFCFD",
"JX c #FAF9F5",
/* pixels */
"cXhX5XcXCXFXFXFXvXpX9X9XvXHXFXFXNXkXwXwXeXNXCXCXCXbXrXwX>XjXlXzXFXAXvX0X5XcXbXBXVXVXzXjXwXwXkXzXBXBXBXhX5X5XcXNXFXFXFXCXcX9XpXcX",
"hX5X5XcXCXFXFXFXcX9X9X9XvXHXFXFXCXcX5X5XtXJXGXGXGXJXeXwXwXrXkXNXFXHXaX9X5XcXNXSXSXBXVXgX4XwXkXVXSXSXBXcX5X5XhXcXFXFXFXCXcX5X5XpX",
"5X5X5XcXCXFXFXFXcX9X9X9XvXFXFXFXvX0X8XqX0XvXZXZXZXvX0X7X9XtXZXGXFXHXcX9X5XcXCXFXFXFXCXcX4X5XcXCXFXFXFXcXpX5XpXcXFXFXFXCXcX5X5X5X",
"cXcXcXcXCXZXHXFXcXcXcXcXcXCXFXFXvXvX0X0XaXvXvXZXvXvXvX0X0XvXvXZXCXCXcXcXcXvXmXmXHXmXvXvXaXcXvXmXZXZXCXvXcXcXcXcXFXFXCXCXcXcXcXcX",
"CXCXCXCXcXcXcXcXNXNXCXCXNXcXcXcXkXbXVXVXkXkXrXrXkXkXbXNXNXNXcXcXhXkXNXCXZXmXvXaXaXaXvXMXmXmXmXvXaXcXvXvXCXZXCXCXcXcXcXcXNXNXNXNX",
"FXFXFXZXcXhX5X5XNXSXSXSXNXhX5X4XkXkXVXVXzXjX>X,XwXjXVXBXSXNXeX4X4XhXNXFXFXmXaX8X8X8XaXAXHXHXmXcX3X5XcXvXFXFXFXNX5X5XhXcXCXFXFXFX",
"FXFXFXFXcX5X4X4XbXBXSXSXNXhX5X4XhXVXBXBXVXkXwX4XwXkXCXFXFXZXaX3X4XhXNXFXFXAXaX8X8X0XaXHXFXFXCXhX4X4XhXVXSXSXBXbX4X4X5XcXFXFXFXFX",
"FXFXFXFXcX5X4X4XkXNXSXSXNXhX5X5XhXbXSXSXNXhXhXhXhXcXZXFXFXmXaX9X5XhXCXFXFXmXaXaXaXaXvXZXFXSXbXgX4XwXhXVXBXBXVXkX4X4X5XcXFXFXFXHX",
"mXvXcXcXNXNXbXkXbXbXbXbXNXcXcXcXkXkXbXVXNXcXcXpXcXFXcXHX9XFX3XFXCXCXvXvXvXvXvXvXvXHXFXNXkXkXjXjXwXzXkXwXzXVXkXjXkXbXNXcXcXpXvXMX",
"pX9X9XcXCXSXSXBX4X4X5XhXcXmXZXHXSXhX2X=X3XvXHXHXHXHX6X3X6XCX4XSXFXZXvXpXpXcXCXZXFXbXeXwXwX>XjXVXSXFXNX4XeXhXhXBXVXBXCXcXpX0XaXaX",
"3X3X3XcXCXSXSXSXhX5X5X5XcXZXHXHXFXbXcXpXMXAXMXdXaXMX0XcX=XgXkXBXFXHXvX9X3XcXNXSXSXVXkXkXeX;X4XFXmXHXAXaX0X6X].5XFXFXFXCXpX9X7X0X",
"3X3X9XcXCXSXSXSXNXcX3X9XaXmXAXAXaXiX8XiXsXsX@XXX&XiXiXMXdXvXSXhXFXmXvX9X5XhXVXBXBXSXSXcX9X7XvXAXdXdXdXdXMXaXaXHXFXFXFXCXcX9X9X9X",
"vXvXvXcXNXNXNXNXCXcX9X0XaXMXdXsXsX%XR.j.{ n 0 : 1 ; 3 _ P.{.dXMXvXvXvXcXkXkXkXzXVXNXcX7XaXdXiX{.G.H.k.w.A.F.U. XAXmXmXcXcXcXcXcX",
"HXFXFXCXcXhXeXhXCXvXmXHXAXMX#X{.3.W 9 = - i i i a a , q w U XX&XaXcXCXSXBXzXjXgXhXcXaXMXdX%XP.t ; : ; ; 3   o G aXaXaXcXNXNXVXVX",
"FXFXFXCXcX5X5X5XCXHXHXAXAXoXU.q.8 0 p a l z z z f l b 9 + X ).iX7XcXNXBXVXzXjXwX5X0XMXdX@XH.w @ a d b v g & H A.iXiX0XcXNXBXVXzX",
"FXFXFXZXcX5X5XeXcXHXHXMX@XK.U # 0 a k k k d f f l a a c t F #X#X7XpXHXFXBXzXjX>XcX8XiX@XH.q : A l z a p 7 w P.dXiX8XfXcXBXBXVXVX",
"FXFXFXZXcXhX4X4XBX+XAXdX8.0 A l z z l a v M M k C k A n . D.HX=X5XvXMXAXFXBXlX,X-XiX*XJ.0 v p A l s v & F `.dXpXpX3XpXCXCXFXSXBX",
"eXeXpXcXCXFXSXBXxXHXsXK.V b Z z z l C N y & & q 0 c c t U  XSXgXSXHXaX7X7XkXlXzXyXMX(.1 A C A p k >.& t ~.iXFXnXFXFXAXfXfXcXnXnX",
"5X5X5XcXSXSXSXFXpXAXQ.H n A Z Z A N y 4 L Q.OXXX(.J.t o D.AXFXBXSXHXMXaXpXuXgXBXAX@X! x A C A M { & K (.dXdX$XfXfXHXHX7XpXpX2XuX",
"0X9X5XhXNXSXSXHXAXoXq.J { A C ) Q 5 F S.&XMXAXMXdXsX{.S.#XiXMXFXSXVXnXCXcXyXcXAXsXe.< x.C C @.{ 4 F OXsXOXsXI.] Y.dXAXfXAXnX=XyX",
"0X9X5XhXVXBXFXHXdXD.I { %.) A ~ 6 ` ~.HXFXhX-XhXnXAXHXfXMX$XMXFXSXBXhX5X5XfXMXdXK.y -.S S S &.t O &XdXsXXXA.' D V.#XAXaXHXnX4XCX",
"vXvXNXkXjXkXcXaX%Xw.Q O.B O.2.K G +XHXyX[.VXzX<XVX4X2X3XnXAXHXaXVXzXxXnXHXAX&XXX .( +.C +.<.y H |.pXiX@XL.P H L Q.iXHXcXnXxXhXFX",
"AXHXFXzX<X>X3X#X/.t.O.@.O.%.:.K ~.$XHXHXHXyX2X=X[.zXBXSXFXnX3XpX2XhXVXFXHXAX).z.{ >.Z +.@.X.H I.FX2XMXS.H b.4.H @XsXnXgXkXVXFXFX",
"aXmXFXzX<X>XaXdXL.;.@.>.1.%.Q I dXdXdXMXMXdXsXdXaXHXyXnXFXFX2XCXyXNXnXpXHXdX/.| &.+.+.>...5 Q.dX+XHXE.q.6.o.4.P dX7X-XlXzXBXFXMX",
"MXHXNXVX<X;XmX@Xn.,.>.+.1.%.K !.*XsXsX).L.L.K.A.^.oXdXHXHXHXhX4XyX2XFXfXAX{.w.t.f.@.>.c.r [ HX.X$XiXA.7.t.a.| q.dXyX,X1XzXBXFXAX",
"aXvXhXzXjXwXAXoXi.<.2.-.x.d. .!.*XL.4.| t.y.t.i.j.w.K.oXMXAXnXnXHX3XMXMXsXQ.8.d.&.x.;.4.R #XSX4XsX{.w.t.d.a. .D.dXhX1X1XlXhXfXiX",
"0X0X4XkXkXNXAX{.6.f.l.2.v.v.9.J.6.X.g.J.m.%.%.f.,.:.8.P.}.sXHXCXHXdX7XAX}.A.u.d.f.v.n.D ~.FXzXnXdXL.X.d.c.d.K ^.AXBXlXlXlXuXfXiX",
"0X9X=XhXBXFXAX).8.c.x.1.x.v.6.n.b.p.a.a.d.c.v.v.c.B.v.7.A.}.MXHXHXHX$XMXD.0.b.f.M.t.0.R HXhX-XHX%Xb.#.h.f.c.K ).MXFXVXlX>X2XaXdX",
"0X9X6XhXSXFXMX^.8.m.x.1.x.v.p.i.b.b.n.n.n.n.i.#.f.c.c.y.7.A.oXAXdXHXfX#XC.w.M.,.m.8.D  X3XnX+XMX/.i.g.c.,.m. ./.sXAXFXxX4X2X7XfX",
"tXvX5XcXcXmXsXQ.w.N.d.f.c.v.M.i.n.e.' ` ` ` q.J.v.*.f.M.b.3.D.sXiXHXaX~.q.n.M.,.g.7.] AXpXMXAXsXP.j.N.m.;.m.t.J.*XdXAXAXAXAXaX7X",
"cXFXNXNXpXaX&XT.w.b.y.v.v.v.M.6.I L ] Y.'.'.F.[ n.d.f.M.m.X.w.Q.aXAXiXF.w.b.f.f.N._ E.iXHX#XsX/.z.w.j.M.;.c.g.N./.).}.$XaXHXHXAX",
"CXSXSXCX5XqX#XT.w.b.;.m.v.t.b.} 3.{.MXFXzXBXAX#XA.N.f.*.,.N.n.[ MXpX#XC.n.p.$.v.M.P K.iXdXoXP.w.z.k.6.M.s.h.c.a.i.7.3.C.~.aXFXFX",
"SXkXVXBX4XvXiXK.X.f.<.f.#.J.F ' dXsXMXSXzX>X4XaXXXG.y.h.s.g.j.' |.FX`.0.t.s.m.a.t.u.b.k.6.5.w.8.k.5.y.f.f.f.f.s.m.r.y.8.' MXCXVX",
"SXhXVXVX4XmXiXL.#.<.@.<.#.G.G I.aXMXFXBXlXlXhX0X#XG.r.s.$.y.u.' |.vXT.| $.*.$...p.y.s.,.*.$.t.u.p.r.*.<.=.*.;.#.y.$.s.u.3.dXFXzX",
"ZX5XkXzXwXHXaX!.4.$.O.,.5.e.Y dXaXaXwX,X:X1XkX0XdXG.X.s.$.%.X.I I.iXL.X.<.=.*.m.#.$.&.<.f.,...r.X.$.*.*.*.,.y.t.5.t.a.4.' iX4X,X",
"aX3XeXhXhXFXMX).} X.%.$.o.} Y dXAXcX;X:X:XlXBXHXdXH./ $.$.%...P ~.dXL./ %.@.( $.#.#.O.O.*.( ~ X./ $.&.O.*.$.o.4.} e.4.I ' 8XeX,X",
"8X7X5XeXkXFXAX@XP ^ #.../ ^ I iXAX4X;X<XlXlXNXAXsXn.W O.%.%.~ H ~.dXK.K %.,.$.Q 6.o.Q E W W / 5...$.( ( ( ! H L L T U F ] $XhX>X",
"8X0X9X5XbXFXmXiXT K ..~ Q / I !.MXpX2X-XwXhXmXMX(.4.n ( ( ( ~ w W.AX{.0.J J ^ P 5 F P ^ ^ e.e.I ~ O.A N ~ J L Z.Q.~.S.C.U.$X4X,X",
"iXmXvXhXkXbXvXaXZ.H ! W W ~ n 8.@XMXAXaXaXAXdXoX8.W m ( m N ~ 5 $XFXAX~.` F Y Y I.I.#XdXiXdXdXP.n ~ M N / J q.#XAXAXdX#XMXHXVXkX",
"aXHXFXkXkXhX9XaXQ.H n m m M h E 7.{.dXsXiXsX(.e.y u N ( x n W D mX>X5XHXdXiXMXaXHX7XFXHX0XAXdX[ y N M m W w C.AX'.0X8X8XAXvXkXVX",
"MXHXFXBXgX4X9XaX@XP ; m M b C v n J | G.G.} J y n , M g n E & Z.cXjXzXSXFXMXaX9X4XwXkXBXNXFXaXY y x v x n 5 I.MXcX5X3X0XmXFXBXkX",
"HXFXFXBXgX4X5X8XdXG.y 0 v a a C g < 9 q q 7 9 0 , N m < n 3 2 iX9XjXkXBXFXZXvXpX4XwXjXzXBXFXaXY e h v , 7 4 T.HX4X;X6X9XZXFXSXBX",
"vXvXbXkXkXkXcXvXdX{.^ ; x b s s b j p p p g h x g , 9 8 4 5 Z.dXaXhXbXNXCXmXMXMXCXkXjXzXcXHX{.5 7 x v , 7 4 T.HXhXjXkXcXvXcXbXkX",
"9X3X5XhXVXBXFXHX8XsXL.t ; g p p i s p s s p p > > 9 8 4   Y iXAXmXvXcXtXpXvXMXAXHXCXgXkX9XaX^.2 7 : > : 9 4 S.0XBXVXBXNXcX3X4XwX",
"aX9X5XhXVXBXSXCXaXaXiXK.4 + e q > p > - - > , < 9 y .   ] ~.HXHXHXAXcX3X3XaXMXAXHXCXwXkX0XiX!.# 7 = = > q * S.HXbXzXBXNXcX5X5XhX",
"0X9X5XhXVXBXBXSXFX|.iXdXD.5   . ; : : > : : ; ; + #   [ oXHXFX5XHXHXcX5X4XpXMXAXHXCXgXhX3X#XL.+ 7 ; : : = . C.AXNXVXBXNXcX5X5XeX",
"0X0XpXcXVXVXBXBXbX].3XAXMX~.` 6 * $ $ @ @ $ + # # H ^.MXqX=XVXVXmXmXkXkXkXcXvXmXFXVX<XjX5X8X!.# # & = % @ + A.8XFXVXNXNXcX9X5X5X",
"HXHXZXCXcXhXgXgX4XSXFX|.mXAX8X}.q.P 5 4 2 4 H 3.^.dXMX8XFXSX>X>X9XcXbXVXVXVXvXvX5XwXjXVXSXAX@XH 2 4 8 8 ^ 0.@XAX5XwXeXcXvXZXFXFX",
"FXFXFXCXcX5X5X5XhXCXFXFXcX9X9XaXAXMXdXaXiXiXdXAX8XaXAXFXFXNXhX4X5XcXNXSXSXSXcX9X5XhXbXBXFXFXMXiX$X#X8XsXMXAXAXvX5X4X5XcXZXFXFXFX",
"FXFXFXCXcX5X5X5XcXCXFXFXcX5X5X5XcXCXFXFXFXcXcX5X5XcXCXFXFXCXcX5X5XcXCXFXFXCXcX5X5XcXcXFXFXFXCXcX5X5X5XcXFXFXFXCX5X5X5XcXCXFXFXFX",
"FXFXFXCXcXcX5XcXcXcXCXCXCXcXcX5X5XcXFXFXFXCXcX5XcXcXCXFXFXCXcXcXcXcXCXFXFXCXcXcXcXcXcXCXFXFXCXcX5X5XcXcXCXCXCXCX5X5X5XcXCXFXFXFX",
"cXcXcXcXcXcXCXCXcXcXcXcXCXCXCXcXCXCXcXcXcXcXCXFXCXCXcXcXcXcXcXCXCXcXcXcXcXcXCXCXCXCXcXcXcXcXCXCXCXcXcXcXcXcXcXcXCXcXcXcXcXcXcXcX",
"5X5X5XcXCXFXFXFXcX5X5X5XcXFXFXFXFXcX5X6X5XcXFXFXFXCXcX5X5XcXCXFXFXCXcX5X5XcXCXFXFXFXcX5X5X5XcXFXFXFXCXcXcX5XcXcXFXFXFXCXcX5X5X5X",
"5X5X5XcXCXFXFXFXcX5X5X5XcXCXFXFXCXcX5X5XcXCXFXFXFXCXcX5X5XcXFXFXFXFXcX5X5XcXCXFXFXFXcX5X5X5XcXCXFXFXCXcX5X5X5XcXFXFXFXCXcX5X5X5X",
"cX5X5XcXCXFXFXFXcXcX5XcXcXCXCXFXcXcX5XcXcXCXCXCXFXCXcX5X5XcXCXFXFXCXcX5X5XcXCXFXFXCXCXcX5X5XcXCXCXFXCXcX5X5XcXcXFXFXFXCXcX5XcXcX",
"CXcXcXcXCXCXcXcXcXcXcXcXcXcXcXcXCXcXcXcXcXCXcXcXcXcXcXcXcXcXCXCXCXCXcXcXcXcXcXcXcXcXCXcXcXcXcXCXcXCXCXcXcXcXcXCXcXcXCXCXcXcXcXCX",
"FXFXFXFXcX5X5X5XcXCXFXFXCXcX5X5XcXCXFXFXCXcXcXeXtXcXCXFXFXCXcX5X5XcXCXFXFXCXcXcXcXcXcXCXFXFXCXcX5X5XcXCXFXFXCXcX5X5X5XcXFXFXFXFX",
"FXFXFXFXcX5X5X5XcXFXFXFXCXcX5X5XcXCXFXFXFXcX5X5X5XcXFXFXFXCXcX5X5XcXCXFXFXFXcX5X5X5XcXFXFXFXCXcX5X5XcXCXFXFXFXCX5X5X5XcXFXFXFXFX",
"FXFXFXCXcXcX5X5XCXFXFXFXCXcX5X5XcXCXFXFXFXcX5X5X5XcXCXFXFXCXcX5X5XcXCXFXFXCXcX5X5X5XcXFXFXFXCXcX5X5XcXcXFXFXFXCX5X5XcXcXCXFXFXFX",
"CXCXCXJXcXcXcXcXcXCXCXCXcXcXcXcXcXCXCXCXCXcXcXcXcXcXCXCXCXCXcXcXcXcXCXCXCXCXcXcX5XcXcXCXCXCXCXcXcXcXcXcXCXCXCXCXcXcXcXcXCXCXCXCX",
"cXcXcXcXCXCXFXFXcXcXcXcXcXCXFXFXCXcXcXcXcXcXCXFXCXCXcXcXcXcXCXCXCXCXcXcXcXcXCXCXFXCXcXcXcXcXcXCXCXCXCXcXcXcXcXcXFXFXCXCXcXcXcXcX",
"5X5X5XcXCXFXFXFXcX5X5X5XcXFXFXFXCXcX5X5XcXCXFXFXFXCXcX5X5XcXFXFXFXFXcX5X5XcXCXFXFXFXCXcX5X5XcXCXFXFXFXcXcX5XcXcXFXFXFXCXcX5X5X5X",
"cX5X5XcXCXFXFXFXcX5X5X5XcXFXFXFXCXcX5X5XcXCXFXFXFXCXcX5X5XcXFXFXFXFXcX5X5XcXCXFXFXFXCXcX5X5XcXCXFXFXFXcX5X5XcXcXFXFXFXCXcX5X5XcX",
"cXcX5XcXCXFXFXFXcXcX5X5XcXFXFXFXFXcX5X5XcXCXFXFXFXCXcX5X5XcXFXFXFXFXcX5X5XcXCXFXFXFXCXcX5X5XcXFXFXFXFXcX5X5XcXCXFXFXFXCXcX5XcXcX"
};
